<?xml version="1.0" encoding="UTF-8" standalone="no"?>
<!DOCTYPE svg PUBLIC "-//W3C//DTD SVG 1.1//EN" "http://www.w3.org/Graphics/SVG/1.1/DTD/svg11.dtd">
<svg version="1.1" xmlns="http://www.w3.org/2000/svg" xmlns:xlink="http://www.w3.org/1999/xlink" preserveAspectRatio="xMidYMid meet" viewBox="0 0 640 640" width="640" height="640"><defs><path d="M280.37 77.58L289.3 78.54L298.11 79.86L306.82 81.55L315.4 83.6L323.85 85.99L332.16 88.72L340.34 91.78L348.36 95.16L356.22 98.87L363.92 102.88L371.45 107.19L378.8 111.8L385.96 116.7L392.93 121.87L399.69 127.32L406.25 133.03L412.6 139L418.72 145.22L424.62 151.68L430.28 158.37L435.69 165.29L440.86 172.42L445.76 179.77L450.41 187.33L454.78 195.08L458.87 203.02L462.67 211.14L466.18 219.43L469.39 227.89L472.3 236.51L474.89 245.28L477.15 254.19L479.09 263.24L480.69 272.42L481.95 281.72L482.86 291.13L483.41 300.65L483.59 310.27L483.41 319.88L482.86 329.4L481.95 338.82L480.69 348.11L479.09 357.29L477.15 366.34L474.89 375.26L472.3 384.03L469.39 392.64L466.18 401.1L462.67 409.4L458.87 417.52L458.76 417.73L531.84 482.41L483.06 543.73L412.68 481.45L412.6 481.53L406.25 487.5L399.69 493.21L392.93 498.66L385.96 503.83L378.8 508.73L371.45 513.34L363.92 517.65L356.22 521.67L348.36 525.37L340.34 528.76L332.16 531.82L323.85 534.55L315.4 536.94L306.82 538.98L298.11 540.67L289.3 542L280.37 542.95L271.35 543.53L262.23 543.73L253.11 543.53L244.08 542.95L235.16 542L226.34 540.67L217.64 538.98L209.06 536.94L200.61 534.55L192.29 531.82L184.12 528.76L176.1 525.37L168.24 521.67L160.54 517.65L153.01 513.34L145.66 508.73L138.5 503.83L131.53 498.66L124.76 493.21L118.2 487.5L111.86 481.53L105.73 475.32L99.84 468.86L94.18 462.17L88.76 455.25L83.6 448.11L78.69 440.76L74.05 433.21L69.68 425.46L65.59 417.52L61.79 409.4L58.27 401.1L55.06 392.64L52.16 384.03L49.57 375.26L47.3 366.34L45.37 357.29L43.77 348.11L42.51 338.82L41.6 329.4L41.05 319.88L40.87 310.27L41.05 300.65L41.6 291.13L42.51 281.72L43.77 272.42L45.37 263.24L47.3 254.19L49.57 245.28L52.16 236.51L55.06 227.89L58.27 219.43L61.79 211.14L65.59 203.02L69.68 195.08L74.05 187.33L78.69 179.77L83.6 172.42L88.76 165.29L94.18 158.37L99.84 151.68L105.73 145.22L111.86 139L118.2 133.03L124.76 127.32L131.53 121.87L138.5 116.7L145.66 111.8L153.01 107.19L160.54 102.88L168.24 98.87L176.1 95.16L184.12 91.78L192.29 88.72L200.61 85.99L209.06 83.6L217.64 81.55L226.34 79.86L235.16 78.54L244.08 77.58L253.11 77L262.23 76.81L271.35 77L280.37 77.58ZM250.31 157.36L244.44 157.99L238.65 158.86L232.93 159.97L227.29 161.31L221.73 162.88L216.27 164.68L210.9 166.69L205.63 168.91L200.46 171.35L195.4 173.98L190.46 176.82L185.63 179.85L180.92 183.07L176.34 186.47L171.89 190.05L167.58 193.8L163.41 197.72L159.39 201.81L155.51 206.05L151.8 210.45L148.24 214.99L144.84 219.68L141.62 224.51L138.57 229.48L135.7 234.57L133.01 239.79L130.51 245.12L128.2 250.57L126.09 256.13L124.18 261.8L122.48 267.56L120.99 273.42L119.72 279.36L118.67 285.4L117.84 291.51L117.24 297.69L116.88 303.95L116.76 310.27L116.88 316.59L117.24 322.84L117.84 329.03L118.67 335.14L119.72 341.17L120.99 347.12L122.48 352.97L124.18 358.74L126.09 364.4L128.2 369.96L130.51 375.41L133.01 380.75L135.7 385.96L138.57 391.06L141.62 396.02L144.84 400.85L148.24 405.54L151.8 410.09L155.51 414.48L159.39 418.73L163.41 422.81L167.58 426.73L171.89 430.49L176.34 434.07L180.92 437.47L185.63 440.69L190.46 443.71L195.4 446.55L200.46 449.19L205.63 451.62L210.9 453.85L216.27 455.86L221.73 457.65L227.29 459.22L232.93 460.57L238.65 461.67L244.44 462.55L250.31 463.18L256.24 463.56L262.23 463.68L268.22 463.56L274.15 463.18L280.02 462.55L285.81 461.67L291.53 460.57L297.17 459.22L302.72 457.65L308.19 455.86L313.56 453.85L318.83 451.62L324 449.19L329.05 446.55L334 443.71L338.83 440.69L343.54 437.47L348.12 434.07L352.56 430.49L356.87 426.73L361.04 422.81L365.07 418.73L368.94 414.48L372.66 410.09L376.22 405.54L379.61 400.85L382.84 396.02L385.89 391.06L388.76 385.96L391.45 380.75L393.95 375.41L396.26 369.96L398.37 364.4L400.27 358.74L401.97 352.97L403.46 347.12L404.74 341.17L405.79 335.14L406.62 329.03L407.21 322.84L407.57 316.59L407.69 310.27L407.57 303.95L407.21 297.69L406.62 291.51L405.79 285.4L404.74 279.36L403.46 273.42L401.97 267.56L400.27 261.8L398.37 256.13L396.26 250.57L393.95 245.12L391.45 239.79L388.76 234.57L385.89 229.48L382.84 224.51L379.61 219.68L376.22 214.99L372.66 210.45L368.94 206.05L365.07 201.81L361.04 197.72L356.87 193.8L352.56 190.05L348.12 186.47L343.54 183.07L338.83 179.85L334 176.82L329.05 173.98L324 171.35L318.83 168.91L313.56 166.69L308.19 164.68L302.72 162.88L297.17 161.31L291.53 159.97L285.81 158.86L280.02 157.99L274.15 157.36L268.22 156.98L262.23 156.85L256.24 156.98L250.31 157.36Z" id="d7PON7pHac"></path><path d="M386.89 77L395.92 77.58L404.84 78.54L413.66 79.86L422.36 81.55L430.94 83.6L439.39 85.99L447.71 88.72L455.88 91.78L463.9 95.16L471.76 98.87L479.46 102.88L486.99 107.19L494.34 111.8L501.5 116.7L508.47 121.87L515.24 127.32L521.8 133.03L528.14 139L534.27 145.22L540.16 151.68L545.82 158.37L551.24 165.29L556.4 172.42L561.31 179.77L565.95 187.33L570.32 195.08L574.41 203.02L578.21 211.14L581.73 219.43L584.94 227.89L587.84 236.51L590.43 245.28L592.7 254.19L594.63 263.24L596.23 272.42L597.49 281.72L598.4 291.13L598.95 300.65L599.13 310.27L598.95 319.88L598.4 329.4L597.49 338.82L596.23 348.11L594.63 357.29L592.7 366.34L590.43 375.26L587.84 384.03L584.94 392.64L581.73 401.1L578.21 409.4L574.41 417.52L570.32 425.46L565.95 433.21L561.31 440.76L556.4 448.11L551.24 455.25L545.82 462.17L540.16 468.86L534.27 475.32L528.14 481.53L521.8 487.5L515.24 493.21L508.47 498.66L501.5 503.83L494.34 508.73L486.99 513.34L479.46 517.65L471.76 521.67L463.9 525.37L455.88 528.76L447.71 531.82L439.39 534.55L430.94 536.94L422.36 538.98L413.66 540.67L404.84 542L395.92 542.95L386.89 543.53L381.22 543.65L381.22 543.73L286.36 543.73L286.36 76.81L381.22 76.81L381.22 76.88L386.89 77ZM382.98 443.56L388.14 443.23L393.24 442.68L398.28 441.93L403.25 440.96L408.15 439.79L412.98 438.43L417.74 436.87L422.4 435.12L426.99 433.18L431.48 431.07L435.88 428.77L440.18 426.31L444.38 423.67L448.47 420.88L452.46 417.92L456.32 414.81L460.07 411.54L463.7 408.13L467.2 404.58L470.57 400.89L473.8 397.07L476.89 393.11L479.84 389.03L482.65 384.83L485.3 380.52L487.8 376.09L490.14 371.55L492.31 366.91L494.32 362.17L496.15 357.34L497.81 352.41L499.29 347.4L500.59 342.31L501.69 337.14L502.61 331.89L503.33 326.58L503.84 321.2L504.16 315.76L504.26 310.27L504.16 304.77L503.84 299.33L503.33 293.95L502.61 288.64L501.69 283.39L500.59 278.22L499.29 273.13L497.81 268.12L496.15 263.19L494.32 258.36L492.31 253.62L490.14 248.98L487.8 244.44L485.3 240.02L482.65 235.7L479.84 231.5L476.89 227.42L473.8 223.47L470.57 219.64L467.2 215.95L463.7 212.4L460.07 208.99L456.32 205.73L452.46 202.61L448.47 199.66L444.38 196.86L440.18 194.23L435.88 191.76L431.48 189.47L426.99 187.35L422.4 185.42L417.74 183.67L412.98 182.11L408.15 180.74L403.25 179.57L398.28 178.61L393.24 177.85L388.14 177.3L382.98 176.97L381.22 176.93L381.22 443.6L382.98 443.56Z" id="ayLGH9rw"></path><path d="M118.67 334.91L119.72 340.95L120.99 346.89L122.48 352.75L124.18 358.51L126.09 364.18L128.2 369.74L130.51 375.19L133.01 380.52L135.7 385.74L138.57 390.83L141.62 395.8L144.84 400.63L148.24 405.32L151.8 409.86L155.51 414.26L159.39 418.5L163.41 422.59L167.58 426.51L171.89 430.26L176.34 433.84L180.92 437.24L185.63 440.46L190.46 443.49L195.4 446.33L200.46 448.96L205.63 451.4L210.9 453.62L216.27 455.63L221.73 457.43L227.29 459L232.93 460.34L238.65 461.45L244.44 462.32L250.31 462.95L256.24 463.33L262.23 463.46L268.22 463.33L274.15 462.95L280.02 462.32L285.81 461.45L291.53 460.34L297.17 459L302.72 457.43L308.19 455.63L313.56 453.62L318.83 451.4L324 448.96L329.05 446.33L334 443.49L338.83 440.46L343.54 437.24L348.12 433.84L352.56 430.26L356.87 426.51L361.04 422.59L365.07 418.5L368.94 414.26L372.66 409.86L376.22 405.32L379.61 400.63L382.84 395.8L385.89 390.83L388.76 385.74L391.45 380.52L393.95 375.19L396.26 369.74L398.37 364.18L400.27 358.51L401.97 352.75L403.46 346.89L404.74 340.95L405.79 334.91L406.62 328.8L407.21 322.62L407.57 316.36L407.69 310.04L483.59 310.04L483.41 319.66L482.86 329.18L481.95 338.59L480.69 347.89L479.09 357.07L477.15 366.12L474.89 375.03L472.3 383.8L469.39 392.42L466.18 400.88L462.67 409.17L458.87 417.29L458.76 417.51L531.84 482.19L483.06 543.5L412.68 481.23L412.6 481.31L406.25 487.28L399.69 492.99L392.93 498.44L385.96 503.61L378.8 508.51L371.45 513.12L363.92 517.43L356.22 521.44L348.36 525.15L340.34 528.53L332.16 531.59L323.85 534.32L315.4 536.71L306.82 538.76L298.11 540.45L289.3 541.77L280.37 542.73L271.35 543.31L262.23 543.5L253.11 543.31L244.08 542.73L235.16 541.77L226.34 540.45L217.64 538.76L209.06 536.71L200.61 534.32L192.29 531.59L184.12 528.53L176.1 525.15L168.24 521.44L160.54 517.43L153.01 513.12L145.66 508.51L138.5 503.61L131.53 498.44L124.76 492.99L118.2 487.28L111.86 481.31L105.73 475.09L99.84 468.63L94.18 461.94L88.76 455.02L83.6 447.89L78.69 440.54L74.05 432.98L69.68 425.23L65.59 417.29L61.79 409.17L58.27 400.88L55.06 392.42L52.16 383.8L49.57 375.03L47.3 366.12L45.37 357.07L43.77 347.89L42.51 338.59L41.6 329.18L41.05 319.66L40.87 310.04L116.76 310.04L116.88 316.36L117.24 322.62L117.84 328.8L117.84 328.8L118.67 334.91ZM406.62 291.28L407.21 297.47L406.62 291.28L406.62 291.28L406.62 291.28ZM118.67 285.17L118.67 285.17L119.72 279.14L119.72 279.14L118.67 285.17ZM404.74 279.14L403.46 273.19L403.46 273.19L403.46 273.19L404.74 279.14ZM126.09 255.91L126.09 255.91L128.2 250.35L128.2 250.35L126.09 255.91ZM139.55 227.67L138.57 229.25L138.57 229.25L138.57 229.25L139.55 227.67ZM148.24 214.77L148.24 214.77L151.8 210.22L151.8 210.22L148.24 214.77ZM159.39 201.58L159.39 201.58L163.41 197.5L163.41 197.5L159.39 201.58ZM361.04 197.5L365.07 201.58L361.04 197.5L361.04 197.5L361.04 197.5ZM176.34 186.24L176.34 186.24L180.92 182.84L180.92 182.84L176.34 186.24ZM343.54 182.84L348.12 186.24L343.54 182.84L343.54 182.84L343.54 182.84ZM190.46 176.6L190.46 176.6L195.4 173.76L195.4 173.76L190.46 176.6ZM334 176.6L329.05 173.76L329.06 173.76L329.06 173.76L334 176.6ZM205.63 168.69L205.63 168.69L210.9 166.46L210.9 166.46L205.63 168.69ZM318.83 168.69L313.56 166.46L313.56 166.46L313.56 166.46L318.83 168.69ZM256.24 156.75L256.24 156.75L262.23 156.63L262.23 156.63L256.24 156.75Z" id="aaVXRhxH3"></path></defs><g><g><g><use xlink:href="#d7PON7pHac" opacity="1" fill="#4fd67f" fill-opacity="1"></use></g><g><use xlink:href="#ayLGH9rw" opacity="1" fill="#3c7eff" fill-opacity="1"></use></g><g><use xlink:href="#aaVXRhxH3" opacity="1" fill="#4fd67f" fill-opacity="1"></use></g></g></g></svg>