<?xml version="1.0" encoding="UTF-8" standalone="no"?>
<!DOCTYPE svg PUBLIC "-//W3C//DTD SVG 1.1//EN" "http://www.w3.org/Graphics/SVG/1.1/DTD/svg11.dtd">
<svg version="1.1" xmlns="http://www.w3.org/2000/svg" xmlns:xlink="http://www.w3.org/1999/xlink" preserveAspectRatio="xMidYMid meet" viewBox="0 0 640 640" width="640" height="640"><defs><path d="M292.83 134.31L299.88 135.03L306.85 136.02L313.73 137.29L320.52 138.82L327.2 140.61L333.77 142.66L340.23 144.95L346.57 147.49L352.79 150.27L358.88 153.27L364.83 156.51L370.64 159.96L376.3 163.63L381.81 167.51L387.16 171.59L392.34 175.88L397.36 180.35L402.2 185.01L406.86 189.85L411.34 194.87L415.62 200.05L419.7 205.4L423.58 210.91L427.25 216.57L430.7 222.38L433.94 228.33L436.95 234.42L439.72 240.64L442.26 246.98L444.55 253.44L446.6 260.01L448.39 266.69L449.92 273.48L451.19 280.36L452.18 287.33L452.9 294.38L453.34 301.52L453.48 308.73L453.34 315.94L452.9 323.07L452.18 330.13L451.19 337.1L449.92 343.98L448.39 350.76L446.6 357.44L444.55 364.02L442.26 370.48L439.72 376.82L436.95 383.04L433.94 389.12L433.85 389.28L491.63 437.77L453.06 483.73L397.43 437.04L397.36 437.11L392.34 441.58L387.16 445.86L381.81 449.94L376.3 453.82L370.64 457.49L364.83 460.95L358.88 464.18L352.79 467.19L346.57 469.97L340.23 472.51L333.77 474.8L327.2 476.85L320.52 478.64L313.73 480.17L306.85 481.44L299.88 482.43L292.83 483.15L285.69 483.58L278.48 483.73L271.27 483.58L264.14 483.15L257.08 482.43L250.11 481.44L243.23 480.17L236.45 478.64L229.77 476.85L223.19 474.8L216.73 472.51L210.39 469.97L204.18 467.19L198.09 464.18L192.14 460.95L186.33 457.49L180.67 453.82L175.16 449.94L169.81 445.86L164.62 441.58L159.6 437.11L154.76 432.45L150.1 427.61L145.63 422.59L141.35 417.4L137.27 412.05L133.39 406.54L129.72 400.88L126.26 395.07L123.03 389.12L120.02 383.04L117.24 376.82L114.71 370.48L112.41 364.02L110.36 357.44L108.57 350.76L107.04 343.98L105.77 337.1L104.78 330.13L104.06 323.07L103.63 315.94L103.48 308.73L103.63 301.52L104.06 294.38L104.78 287.33L105.77 280.36L107.04 273.48L108.57 266.69L110.36 260.01L112.41 253.44L114.71 246.98L117.24 240.64L120.02 234.42L123.03 228.33L126.26 222.38L129.72 216.57L133.39 210.91L137.27 205.4L141.35 200.05L145.63 194.87L150.1 189.85L154.76 185.01L159.6 180.35L164.62 175.88L169.81 171.59L175.16 167.51L180.67 163.63L186.33 159.96L192.14 156.51L198.09 153.27L204.18 150.27L210.39 147.49L216.73 144.95L223.19 142.66L229.77 140.61L236.45 138.82L243.23 137.29L250.11 136.02L257.08 135.03L264.14 134.31L271.27 133.87L278.48 133.73L285.69 133.87L292.83 134.31ZM269.06 194.11L264.42 194.58L259.84 195.23L255.32 196.07L250.86 197.07L246.47 198.25L242.15 199.6L237.9 201.1L233.74 202.77L229.65 204.6L225.65 206.57L221.74 208.7L217.92 210.97L214.2 213.38L210.58 215.93L207.07 218.61L203.66 221.42L200.36 224.36L197.18 227.43L194.12 230.61L191.18 233.9L188.37 237.31L185.68 240.83L183.13 244.45L180.72 248.17L178.45 251.99L176.33 255.9L174.35 259.9L172.53 263.98L170.86 268.15L169.35 272.4L168 276.72L166.83 281.11L165.82 285.56L164.99 290.08L164.34 294.67L163.86 299.3L163.58 303.99L163.48 308.73L163.58 313.47L163.86 318.15L164.34 322.79L164.99 327.37L165.82 331.89L166.83 336.35L168 340.74L169.35 345.06L170.86 349.31L172.53 353.47L174.35 357.56L176.33 361.56L178.45 365.47L180.72 369.29L183.13 373.01L185.68 376.63L188.37 380.14L191.18 383.55L194.12 386.85L197.18 390.03L200.36 393.09L203.66 396.03L207.07 398.84L210.58 401.53L214.2 404.08L217.92 406.49L221.74 408.76L225.65 410.88L229.65 412.86L233.74 414.68L237.9 416.35L242.15 417.86L246.47 419.21L250.86 420.38L255.32 421.39L259.84 422.22L264.42 422.88L269.06 423.35L273.75 423.63L278.48 423.73L283.22 423.63L287.91 423.35L292.55 422.88L297.13 422.22L301.65 421.39L306.1 420.38L310.5 419.21L314.82 417.86L319.06 416.35L323.23 414.68L327.31 412.86L331.31 410.88L335.22 408.76L339.04 406.49L342.76 404.08L346.38 401.53L349.9 398.84L353.31 396.03L356.6 393.09L359.78 390.03L362.85 386.85L365.79 383.55L368.6 380.14L371.28 376.63L373.83 373.01L376.24 369.29L378.51 365.47L380.64 361.56L382.62 357.56L384.44 353.47L386.11 349.31L387.62 345.06L388.96 340.74L390.14 336.35L391.14 331.89L391.98 327.37L392.63 322.79L393.1 318.15L393.39 313.47L393.48 308.73L393.39 303.99L393.1 299.3L392.63 294.67L391.98 290.08L391.14 285.56L390.14 281.11L388.96 276.72L387.62 272.4L386.11 268.15L384.44 263.98L382.62 259.9L380.64 255.9L378.51 251.99L376.24 248.17L373.83 244.45L371.28 240.83L368.6 237.31L365.79 233.9L362.85 230.61L359.78 227.43L356.6 224.36L353.31 221.42L349.9 218.61L346.38 215.93L342.76 213.38L339.04 210.97L335.22 208.7L331.31 206.57L327.31 204.6L323.23 202.77L319.06 201.1L314.82 199.6L310.5 198.25L306.1 197.07L301.65 196.07L297.13 195.23L292.55 194.58L287.91 194.11L283.22 193.82L278.48 193.73L273.75 193.82L269.06 194.11Z" id="b1XiRkmnUY"></path><path d="M372.56 133.73L372.56 133.78L377.04 133.87L384.17 134.31L391.23 135.03L398.2 136.02L405.08 137.29L411.86 138.82L418.54 140.61L425.12 142.66L431.58 144.95L437.92 147.49L444.13 150.27L450.22 153.27L456.17 156.51L461.98 159.96L467.64 163.63L473.15 167.51L478.5 171.59L483.69 175.88L488.7 180.35L493.55 185.01L498.21 189.85L502.68 194.87L506.96 200.05L511.04 205.4L514.92 210.91L518.59 216.57L522.05 222.38L525.28 228.33L528.29 234.42L531.07 240.64L533.6 246.98L535.9 253.44L537.95 260.01L539.74 266.69L541.27 273.48L542.53 280.36L543.53 287.33L544.25 294.38L544.68 301.52L544.83 308.73L544.68 315.94L544.25 323.07L543.53 330.13L542.53 337.1L541.27 343.98L539.74 350.76L537.95 357.44L535.9 364.02L533.6 370.48L531.07 376.82L528.29 383.04L525.28 389.12L522.05 395.07L518.59 400.88L514.92 406.54L511.04 412.05L506.96 417.4L502.68 422.59L498.21 427.61L493.55 432.45L488.7 437.11L483.69 441.58L478.5 445.86L473.15 449.94L467.64 453.82L461.98 457.49L456.17 460.95L450.22 464.18L444.13 467.19L437.92 469.97L431.58 472.51L425.12 474.8L418.54 476.85L411.86 478.64L405.08 480.17L398.2 481.44L391.23 482.43L384.17 483.15L377.04 483.58L372.56 483.67L372.56 483.73L297.56 483.73L297.56 133.73L372.56 133.73ZM373.95 408.64L378.02 408.4L382.05 407.99L386.04 407.42L389.97 406.7L393.85 405.82L397.66 404.8L401.42 403.63L405.11 402.32L408.74 400.86L412.29 399.28L415.77 397.56L419.17 395.71L422.49 393.74L425.72 391.64L428.87 389.42L431.93 387.09L434.89 384.64L437.76 382.09L440.52 379.43L443.19 376.66L445.74 373.79L448.19 370.83L450.52 367.77L452.74 364.62L454.84 361.39L456.81 358.07L458.66 354.67L460.38 351.19L461.96 347.64L463.41 344.01L464.73 340.32L465.89 336.57L466.92 332.75L467.79 328.87L468.52 324.94L469.08 320.96L469.49 316.92L469.74 312.85L469.83 308.73L469.74 304.61L469.49 300.53L469.08 296.5L468.52 292.52L467.79 288.59L466.92 284.71L465.89 280.89L464.73 277.13L463.41 273.44L461.96 269.82L460.38 266.27L458.66 262.79L456.81 259.39L454.84 256.07L452.74 252.83L450.52 249.69L448.19 246.63L445.74 243.66L443.19 240.8L440.52 238.03L437.76 235.37L434.89 232.81L431.93 230.37L428.87 228.03L425.72 225.82L422.49 223.72L419.17 221.75L415.77 219.9L412.29 218.18L408.74 216.59L405.11 215.14L401.42 213.83L397.66 212.66L393.85 211.64L389.97 210.76L386.04 210.04L382.05 209.47L378.02 209.06L373.95 208.81L372.56 208.78L372.56 408.67L373.95 408.64Z" id="b2o4tioG29"></path><path d="M164.99 327.2L165.82 331.73L166.83 336.18L168 340.57L169.35 344.89L170.86 349.14L172.53 353.31L174.35 357.39L176.33 361.39L178.45 365.3L180.72 369.12L183.13 372.84L185.68 376.46L188.37 379.98L191.18 383.38L194.12 386.68L197.18 389.86L200.36 392.92L203.66 395.86L207.07 398.68L210.58 401.36L214.2 403.91L217.92 406.32L221.74 408.59L225.65 410.72L229.65 412.69L233.74 414.52L237.9 416.19L242.15 417.69L246.47 419.04L250.86 420.22L255.32 421.22L259.84 422.05L264.42 422.71L269.06 423.18L273.75 423.46L278.48 423.56L283.22 423.46L287.91 423.18L292.55 422.71L297.13 422.05L301.65 421.22L306.1 420.22L310.5 419.04L314.82 417.69L319.06 416.19L323.23 414.52L327.31 412.69L331.31 410.72L335.22 408.59L339.04 406.32L342.76 403.91L346.38 401.36L349.9 398.68L353.31 395.86L356.6 392.92L359.78 389.86L362.85 386.68L365.79 383.38L368.6 379.98L371.28 376.46L373.83 372.84L376.24 369.12L378.51 365.3L380.64 361.39L382.62 357.39L384.44 353.31L386.11 349.14L387.62 344.89L388.96 340.57L390.14 336.18L391.14 331.73L391.98 327.2L392.63 322.62L393.1 317.99L393.39 313.3L393.48 308.56L453.48 308.56L453.34 315.77L452.9 322.9L452.18 329.96L451.19 336.93L449.92 343.81L448.39 350.59L446.6 357.28L444.55 363.85L442.26 370.31L439.72 376.65L436.95 382.87L433.94 388.95L433.85 389.12L491.63 437.6L453.06 483.56L397.43 436.88L397.36 436.94L392.34 441.41L387.16 445.69L381.81 449.78L376.3 453.66L370.64 457.33L364.83 460.78L358.88 464.02L352.79 467.02L346.57 469.8L340.23 472.34L333.77 474.63L327.2 476.68L320.52 478.47L313.73 480L306.85 481.27L299.88 482.26L292.83 482.98L285.69 483.41L278.48 483.56L271.27 483.41L264.14 482.98L257.08 482.26L250.11 481.27L243.23 480L236.45 478.47L229.77 476.68L223.19 474.63L216.73 472.34L210.39 469.8L204.18 467.02L198.09 464.02L192.14 460.78L186.33 457.33L180.67 453.66L175.16 449.78L169.81 445.69L164.62 441.41L159.6 436.94L154.76 432.28L150.1 427.44L145.63 422.42L141.35 417.24L137.27 411.89L133.39 406.38L129.72 400.71L126.26 394.91L123.03 388.95L120.02 382.87L117.24 376.65L114.71 370.31L112.41 363.85L110.36 357.28L108.57 350.59L107.04 343.81L105.77 336.93L104.78 329.96L104.06 322.9L103.63 315.77L103.48 308.56L163.48 308.56L163.58 313.3L163.86 317.99L164.34 322.62L164.34 322.62L164.99 327.2ZM163.86 299.13L163.86 299.13L164.34 294.5L164.34 294.5L163.86 299.13ZM166.83 280.94L166.83 280.94L168 276.55L168 276.55L166.83 280.94ZM378.51 251.82L376.24 248L376.24 248L376.24 248L378.51 251.82ZM183.13 244.28L183.13 244.28L185.68 240.66L185.68 240.66L183.13 244.28ZM371.28 240.66L373.83 244.28L371.28 240.66L371.28 240.66L371.28 240.66ZM368.6 237.15L371.14 240.47L368.6 237.15L368.6 237.15L368.6 237.15ZM194.12 230.44L194.12 230.44L197.18 227.26L197.18 227.26L194.12 230.44ZM203.66 221.26L203.66 221.26L207.07 218.44L207.07 218.44L203.66 221.26ZM217.92 210.8L217.92 210.8L221.74 208.53L221.74 208.53L217.92 210.8ZM323.23 202.6L319.06 200.94L319.06 200.94L319.06 200.94L323.23 202.6ZM316.1 199.89L314.82 199.43L314.82 199.43L314.82 199.43L316.1 199.89ZM255.32 195.9L255.32 195.9L259.84 195.07L259.84 195.07L255.32 195.9ZM273.75 193.66L273.75 193.66L278.48 193.56L278.48 193.56L273.75 193.66Z" id="b4lQhpN9h"></path></defs><g><g><g><use xlink:href="#b1XiRkmnUY" opacity="1" fill="#4fd67f" fill-opacity="1"></use></g><g><use xlink:href="#b2o4tioG29" opacity="1" fill="#3c7eff" fill-opacity="1"></use></g><g><use xlink:href="#b4lQhpN9h" opacity="1" fill="#4fd67f" fill-opacity="1"></use></g></g></g></svg>