<?xml version="1.0" encoding="UTF-8" standalone="no"?>
<!DOCTYPE svg PUBLIC "-//W3C//DTD SVG 1.1//EN" "http://www.w3.org/Graphics/SVG/1.1/DTD/svg11.dtd">
<svg version="1.1" xmlns="http://www.w3.org/2000/svg" xmlns:xlink="http://www.w3.org/1999/xlink" preserveAspectRatio="xMidYMid meet" viewBox="0 0 640 640" width="640" height="640"><defs><path d="M296.73 164.16L303.79 164.88L310.76 165.88L317.64 167.14L324.42 168.67L331.1 170.46L337.68 172.51L344.14 174.81L350.48 177.34L356.69 180.12L362.78 183.13L368.73 186.36L374.54 189.82L380.2 193.49L385.71 197.37L391.06 201.45L396.25 205.73L401.26 210.2L406.11 214.86L410.77 219.71L415.24 224.72L419.52 229.91L423.6 235.26L427.48 240.77L431.15 246.43L434.61 252.24L437.84 258.19L440.85 264.28L443.63 270.49L446.16 276.83L448.46 283.29L450.51 289.87L452.3 296.55L453.83 303.33L455.09 310.21L456.09 317.18L456.81 324.24L457.24 331.37L457.39 338.58L457.24 345.79L456.81 352.93L456.09 359.98L455.09 366.95L453.83 373.83L452.3 380.62L450.51 387.3L448.46 393.87L446.16 400.33L443.63 406.67L440.85 412.89L437.84 418.98L437.75 419.14L495.53 467.62L456.97 513.58L401.33 466.9L401.26 466.96L396.25 471.44L391.06 475.72L385.71 479.8L380.2 483.68L374.54 487.35L368.73 490.8L362.78 494.04L356.69 497.05L350.48 499.82L344.14 502.36L337.68 504.66L331.1 506.7L324.42 508.49L317.64 510.03L310.76 511.29L303.79 512.29L296.73 513L289.6 513.44L282.39 513.58L275.18 513.44L268.04 513L260.99 512.29L254.02 511.29L247.14 510.03L240.35 508.49L233.67 506.7L227.1 504.66L220.64 502.36L214.3 499.82L208.08 497.05L201.99 494.04L196.04 490.8L190.23 487.35L184.57 483.68L179.06 479.8L173.71 475.72L168.52 471.44L163.51 466.96L158.67 462.3L154.01 457.46L149.53 452.45L145.25 447.26L141.17 441.91L137.29 436.4L133.62 430.74L130.17 424.93L126.93 418.98L123.92 412.89L121.15 406.67L118.61 400.33L116.31 393.87L114.27 387.3L112.48 380.62L110.94 373.83L109.68 366.95L108.68 359.98L107.97 352.93L107.53 345.79L107.39 338.58L107.53 331.37L107.97 324.24L108.68 317.18L109.68 310.21L110.94 303.33L112.48 296.55L114.27 289.87L116.31 283.29L118.61 276.83L121.15 270.49L123.92 264.28L126.93 258.19L130.17 252.24L133.62 246.43L137.29 240.77L141.17 235.26L145.25 229.91L149.53 224.72L154.01 219.71L158.67 214.86L163.51 210.2L168.52 205.73L173.71 201.45L179.06 197.37L184.57 193.49L190.23 189.82L196.04 186.36L201.99 183.13L208.08 180.12L214.3 177.34L220.64 174.81L227.1 172.51L233.67 170.46L240.35 168.67L247.14 167.14L254.02 165.88L260.99 164.88L268.04 164.16L275.18 163.73L282.39 163.58L289.6 163.73L296.73 164.16ZM272.96 223.96L268.32 224.44L263.74 225.09L259.22 225.92L254.76 226.93L250.37 228.11L246.05 229.45L241.81 230.96L237.64 232.63L233.56 234.45L229.56 236.43L225.65 238.55L221.83 240.82L218.11 243.23L214.49 245.78L210.97 248.47L207.56 251.28L204.27 254.22L201.09 257.28L198.02 260.46L195.08 263.76L192.27 267.17L189.59 270.68L187.04 274.3L184.63 278.03L182.36 281.84L180.23 285.75L178.25 289.75L176.43 293.84L174.76 298.01L173.25 302.25L171.91 306.57L170.73 310.96L169.72 315.42L168.89 319.94L168.24 324.52L167.77 329.16L167.48 333.85L167.39 338.58L167.48 343.32L167.77 348.01L168.24 352.65L168.89 357.23L169.72 361.75L170.73 366.21L171.91 370.6L173.25 374.92L174.76 379.16L176.43 383.33L178.25 387.41L180.23 391.41L182.36 395.32L184.63 399.14L187.04 402.86L189.59 406.48L192.27 410L195.08 413.41L198.02 416.7L201.09 419.88L204.27 422.95L207.56 425.89L210.97 428.7L214.49 431.38L218.11 433.93L221.83 436.34L225.65 438.61L229.56 440.74L233.56 442.72L237.64 444.54L241.81 446.21L246.05 447.72L250.37 449.06L254.76 450.24L259.22 451.25L263.74 452.08L268.32 452.73L272.96 453.2L277.65 453.49L282.39 453.58L287.12 453.49L291.81 453.2L296.45 452.73L301.03 452.08L305.55 451.25L310.01 450.24L314.4 449.06L318.72 447.72L322.96 446.21L327.13 444.54L331.22 442.72L335.22 440.74L339.13 438.61L342.94 436.34L346.67 433.93L350.29 431.38L353.8 428.7L357.21 425.89L360.51 422.95L363.69 419.88L366.75 416.7L369.69 413.41L372.5 410L375.19 406.48L377.74 402.86L380.15 399.14L382.42 395.32L384.54 391.41L386.52 387.41L388.34 383.33L390.01 379.16L391.52 374.92L392.86 370.6L394.04 366.21L395.05 361.75L395.88 357.23L396.53 352.65L397.01 348.01L397.29 343.32L397.39 338.58L397.29 333.85L397.01 329.16L396.53 324.52L395.88 319.94L395.05 315.42L394.04 310.96L392.86 306.57L391.52 302.25L390.01 298.01L388.34 293.84L386.52 289.75L384.54 285.75L382.42 281.84L380.15 278.03L377.74 274.3L375.19 270.68L372.5 267.17L369.69 263.76L366.75 260.46L363.69 257.28L360.51 254.22L357.21 251.28L353.8 248.47L350.29 245.78L346.67 243.23L342.94 240.82L339.13 238.55L335.22 236.43L331.22 234.45L327.13 232.63L322.96 230.96L318.72 229.45L314.4 228.11L310.01 226.93L305.55 225.92L301.03 225.09L296.45 224.44L291.81 223.96L287.12 223.68L282.39 223.58L277.65 223.68L272.96 223.96Z" id="b6Q1joGdRz"></path><path d="M391.91 108.26L399.05 108.7L406.1 109.41L413.07 110.41L419.95 111.67L426.74 113.2L433.42 115L439.99 117.04L446.45 119.34L452.79 121.88L459.01 124.65L465.1 127.66L471.05 130.89L476.86 134.35L482.52 138.02L488.03 141.9L493.38 145.98L498.56 150.26L503.58 154.74L508.42 159.4L513.08 164.24L517.55 169.25L521.84 174.44L525.92 179.79L529.8 185.3L533.47 190.96L536.92 196.77L540.16 202.72L543.16 208.81L545.94 215.02L548.48 221.37L550.77 227.83L552.82 234.4L554.61 241.08L556.14 247.86L557.41 254.74L558.4 261.72L559.12 268.77L559.56 275.91L559.7 283.11L559.56 290.32L559.12 297.46L558.4 304.51L557.41 311.48L556.14 318.36L554.61 325.15L552.82 331.83L550.77 338.4L548.48 344.86L545.94 351.21L543.16 357.42L540.16 363.51L536.92 369.46L533.47 375.27L529.8 380.93L525.92 386.44L521.84 391.79L517.55 396.98L513.08 401.99L508.42 406.83L503.58 411.49L498.56 415.97L493.38 420.25L488.03 424.33L482.52 428.21L476.86 431.88L471.05 435.33L465.1 438.57L459.01 441.58L452.79 444.35L446.45 446.89L439.99 449.19L433.42 451.23L426.74 453.02L419.95 454.56L413.07 455.82L406.1 456.82L399.05 457.53L391.91 457.97L387.43 458.06L387.43 458.11L312.43 458.11L312.43 108.11L387.43 108.11L387.43 108.17L391.91 108.26ZM388.82 383.03L392.9 382.78L396.93 382.37L400.91 381.8L404.84 381.08L408.72 380.21L412.54 379.18L416.3 378.01L419.99 376.7L423.61 375.25L427.16 373.66L430.64 371.95L434.04 370.1L437.36 368.12L440.6 366.03L443.74 363.81L446.8 361.48L449.77 359.03L452.63 356.47L455.4 353.81L458.06 351.05L460.62 348.18L463.06 345.21L465.4 342.16L467.61 339.01L469.71 335.77L471.68 332.45L473.53 329.05L475.25 325.58L476.84 322.02L478.29 318.4L479.6 314.71L480.77 310.95L481.79 307.13L482.67 303.26L483.39 299.33L483.96 295.34L484.37 291.31L484.62 287.23L484.7 283.11L484.62 279L484.37 274.92L483.96 270.89L483.39 266.9L482.67 262.97L481.79 259.1L480.77 255.28L479.6 251.52L478.29 247.83L476.84 244.21L475.25 240.65L473.53 237.18L471.68 233.77L469.71 230.46L467.61 227.22L465.4 224.07L463.06 221.01L460.62 218.05L458.06 215.18L455.4 212.42L452.63 209.75L449.77 207.2L446.8 204.75L443.74 202.42L440.6 200.2L437.36 198.11L434.04 196.13L430.64 194.28L427.16 192.56L423.61 190.98L419.99 189.53L416.3 188.22L412.54 187.05L408.72 186.02L404.84 185.15L400.91 184.42L396.93 183.86L392.9 183.45L388.82 183.2L387.43 183.17L387.43 383.06L388.82 383.03Z" id="b2kFTTYRo0"></path><path d="M397.01 329.16L396.53 324.52L395.88 319.94L395.05 315.42L394.04 310.96L392.86 306.57L391.52 302.25L390.01 298.01L388.34 293.84L386.52 289.75L384.54 285.75L382.42 281.84L380.15 278.03L377.74 274.3L375.19 270.68L372.5 267.17L369.69 263.76L366.75 260.46L363.69 257.28L360.51 254.22L357.21 251.28L353.8 248.47L350.29 245.78L346.67 243.23L342.94 240.82L339.13 238.55L335.22 236.43L331.22 234.45L327.13 232.63L322.96 230.96L318.72 229.45L314.4 228.11L310.01 226.93L305.55 225.92L301.03 225.09L296.45 224.44L291.81 223.96L287.12 223.68L282.39 223.58L277.65 223.68L272.96 223.96L268.32 224.44L263.74 225.09L259.22 225.92L254.76 226.93L250.37 228.11L246.05 229.45L241.81 230.96L237.64 232.63L233.56 234.45L229.56 236.43L225.65 238.55L221.83 240.82L218.11 243.23L214.49 245.78L210.97 248.47L207.56 251.28L204.27 254.22L201.09 257.28L198.02 260.46L195.08 263.76L192.27 267.17L189.59 270.68L187.04 274.3L184.63 278.03L182.36 281.84L180.23 285.75L178.25 289.75L176.43 293.84L174.76 298.01L173.25 302.25L171.91 306.57L170.73 310.96L169.72 315.42L168.89 319.94L168.24 324.52L167.77 329.16L167.48 333.85L167.39 338.58L107.39 338.58L107.53 331.37L107.97 324.24L108.68 317.18L109.68 310.21L110.94 303.33L112.48 296.55L114.27 289.87L116.31 283.29L118.61 276.83L121.15 270.49L123.92 264.28L126.93 258.19L130.17 252.24L133.62 246.43L137.29 240.77L141.17 235.26L145.25 229.91L149.53 224.72L154.01 219.71L158.67 214.86L163.51 210.2L168.52 205.73L173.71 201.45L179.06 197.37L184.57 193.49L190.23 189.82L196.04 186.36L201.99 183.13L208.08 180.12L214.3 177.34L220.64 174.81L227.1 172.51L233.67 170.46L240.35 168.67L247.14 167.14L254.02 165.88L260.99 164.88L268.04 164.16L275.18 163.73L282.39 163.58L289.6 163.73L296.73 164.16L303.79 164.88L310.76 165.88L317.64 167.14L324.42 168.67L331.1 170.46L337.68 172.51L344.14 174.81L350.48 177.34L356.69 180.12L362.78 183.13L368.73 186.36L374.54 189.82L380.2 193.49L385.71 197.37L391.06 201.45L396.25 205.73L401.26 210.2L406.11 214.86L410.77 219.71L415.24 224.72L419.52 229.91L423.6 235.26L427.48 240.77L431.15 246.43L434.61 252.24L437.84 258.19L440.85 264.28L443.63 270.49L446.16 276.83L448.46 283.29L450.51 289.87L452.3 296.55L453.83 303.33L455.09 310.21L456.09 317.18L456.81 324.24L457.24 331.37L457.39 338.58L397.39 338.58L397.29 333.85L397.01 329.16Z" id="cmAKCwolO"></path></defs><g><g><g><use xlink:href="#b6Q1joGdRz" opacity="1" fill="#4fd67f" fill-opacity="1"></use></g><g><use xlink:href="#b2kFTTYRo0" opacity="1" fill="#3c7eff" fill-opacity="1"></use></g><g><use xlink:href="#cmAKCwolO" opacity="1" fill="#4fd67f" fill-opacity="1"></use></g></g></g></svg>